<svg width="42" height="42" viewBox="0 0 42 42" fill="none" xmlns="http://www.w3.org/2000/svg">
<path d="M36.9961 30.6797C35.6934 29.3672 32.5385 27.4517 31.0078 26.6798C29.0144 25.6758 28.8504 25.5937 27.2836 26.7578C26.2385 27.5346 25.5437 28.2286 24.3206 27.9677C23.0975 27.7069 20.4397 26.236 18.1125 23.9162C15.7853 21.5964 14.2291 18.8614 13.9674 17.6424C13.7058 16.4235 14.4112 15.7369 15.1807 14.6893C16.2651 13.2128 16.1831 12.9667 15.2562 10.9733C14.5335 9.42292 12.5622 6.29753 11.2448 5.00143C9.83553 3.60936 9.83553 3.85546 8.92744 4.2328C8.18812 4.54379 7.47887 4.9219 6.80858 5.36237C5.49608 6.23436 4.76764 6.9587 4.25822 8.04725C3.74881 9.13581 3.51994 11.6878 6.15068 16.4669C8.78143 21.2461 10.6271 23.6898 14.4473 27.4993C18.2675 31.3089 21.2051 33.3572 25.4994 35.7656C30.8117 38.7409 32.8494 38.1609 33.9412 37.6523C35.0331 37.1437 35.7607 36.4219 36.6343 35.1094C37.0759 34.4402 37.4549 33.7317 37.7664 32.993C38.1445 32.0882 38.3906 32.0882 36.9961 30.6797Z" stroke="white" stroke-miterlimit="10"/>
</svg>
