<svg width="20" height="19" viewBox="0 0 20 19" fill="none" xmlns="http://www.w3.org/2000/svg">
<path d="M6.24366 13.2363C4.28298 11.2718 2.77514 8.90271 1.82559 6.29467C1.30319 4.86878 1.78183 3.30249 2.85581 2.22852L3.52043 1.5648C3.69911 1.38576 3.91135 1.24372 4.14499 1.1468C4.37863 1.04989 4.6291 1 4.88204 1C5.13499 1 5.38545 1.04989 5.6191 1.1468C5.85274 1.24372 6.06498 1.38576 6.24366 1.5648L7.79991 3.12107C7.97896 3.29975 8.121 3.51198 8.21792 3.74562C8.31483 3.97927 8.36472 4.22973 8.36472 4.48268C8.36472 4.73563 8.31483 4.98609 8.21792 5.21973C8.121 5.45338 7.97896 5.66561 7.79991 5.84429L7.417 6.22721C7.26373 6.38044 7.14215 6.56237 7.0592 6.7626C6.97625 6.96283 6.93356 7.17744 6.93356 7.39417C6.93356 7.61091 6.97625 7.82552 7.0592 8.02575C7.14215 8.22598 7.26373 8.4079 7.417 8.56114L10.9179 12.063C11.0711 12.2162 11.2531 12.3378 11.4533 12.4208C11.6535 12.5037 11.8681 12.5464 12.0849 12.5464C12.3016 12.5464 12.5162 12.5037 12.7164 12.4208C12.9167 12.3378 13.0986 12.2162 13.2518 12.063L13.6357 11.68C13.8143 11.501 14.0266 11.359 14.2602 11.262C14.4939 11.1651 14.7443 11.1152 14.9973 11.1152C15.2502 11.1152 15.5007 11.1651 15.7343 11.262C15.968 11.359 16.1802 11.501 16.3589 11.68L17.9151 13.2363C18.0942 13.415 18.2362 13.6272 18.3331 13.8609C18.4301 14.0945 18.4799 14.345 18.4799 14.5979C18.4799 14.8509 18.4301 15.1013 18.3331 15.335C18.2362 15.5686 18.0942 15.7809 17.9151 15.9595L17.2514 16.6232C16.1775 17.6981 14.6112 18.1768 13.1853 17.6544C10.5773 16.7048 8.20814 15.197 6.24366 13.2363Z" stroke="white" stroke-opacity="0.9" stroke-width="1.5" stroke-linejoin="round"/>
</svg>
