<svg width="45" height="45" viewBox="0 0 45 45" fill="none" xmlns="http://www.w3.org/2000/svg">
<path d="M24.375 41.2498H16.875C16.3777 41.2498 15.9008 41.0522 15.5492 40.7006C15.1975 40.349 15 39.8721 15 39.3748V27.7498H11.25C10.7527 27.7498 10.2758 27.5522 9.92418 27.2006C9.57254 26.849 9.375 26.3721 9.375 25.8748V19.1248C9.375 18.6275 9.57254 18.1506 9.92418 17.799C10.2758 17.4473 10.7527 17.2498 11.25 17.2498H15V14.0623C15.1314 11.2055 16.3887 8.51687 18.4968 6.5844C20.605 4.65192 23.3925 3.63277 26.25 3.74979H31.875C32.3723 3.74979 32.8492 3.94734 33.2008 4.29897C33.5525 4.6506 33.75 5.12751 33.75 5.62479V12.3748C33.75 12.8721 33.5525 13.349 33.2008 13.7006C32.8492 14.0522 32.3723 14.2498 31.875 14.2498H26.25V17.2498H31.875C32.1645 17.2476 32.4506 17.3125 32.7108 17.4393C32.9711 17.5662 33.1984 17.7516 33.375 17.981C33.5497 18.2139 33.6677 18.4842 33.7198 18.7706C33.7718 19.057 33.7565 19.3516 33.675 19.631L31.8 26.381C31.6866 26.7866 31.4399 27.1422 31.0998 27.3905C30.7597 27.6388 30.3458 27.7654 29.925 27.7498H26.25V39.3748C26.25 39.8721 26.0525 40.349 25.7008 40.7006C25.3492 41.0522 24.8723 41.2498 24.375 41.2498ZM18.75 37.4998H22.5V25.8748C22.5 25.3775 22.6975 24.9006 23.0492 24.549C23.4008 24.1973 23.8777 23.9998 24.375 23.9998H28.575L29.4 20.9998H24.375C23.8777 20.9998 23.4008 20.8022 23.0492 20.4506C22.6975 20.099 22.5 19.6221 22.5 19.1248V14.0623C22.5481 13.1006 22.9644 12.1942 23.6625 11.531C24.3606 10.8678 25.2871 10.4986 26.25 10.4998H30V7.49979H26.25C24.3878 7.38634 22.5559 8.01173 21.1518 9.24029C19.7478 10.4688 18.8847 12.2015 18.75 14.0623V19.1248C18.75 19.6221 18.5525 20.099 18.2008 20.4506C17.8492 20.8022 17.3723 20.9998 16.875 20.9998H13.125V23.9998H16.875C17.3723 23.9998 17.8492 24.1973 18.2008 24.549C18.5525 24.9006 18.75 25.3775 18.75 25.8748V37.4998Z" fill="white" fill-opacity="0.95"/>
</svg>
