<svg width="45" height="45" viewBox="0 0 45 45" fill="none" xmlns="http://www.w3.org/2000/svg">
<path d="M31.875 15.9375C33.4283 15.9375 34.6875 14.6783 34.6875 13.125C34.6875 11.5717 33.4283 10.3125 31.875 10.3125C30.3217 10.3125 29.0625 11.5717 29.0625 13.125C29.0625 14.6783 30.3217 15.9375 31.875 15.9375Z" fill="#FFFEFE"/>
<path d="M30 5.625C35.175 5.625 39.375 9.825 39.375 15V30C39.375 35.175 35.175 39.375 30 39.375H15C9.825 39.375 5.625 35.175 5.625 30V15C5.625 9.825 9.825 5.625 15 5.625H22.5H30Z" stroke="#FFFEFE" stroke-width="2" stroke-linecap="round" stroke-linejoin="round"/>
<path d="M22.5 15C26.6438 15 30 18.3562 30 22.5C30 26.6438 26.6438 30 22.5 30C18.3562 30 15 26.6438 15 22.5C15 18.3562 18.3562 15 22.5 15Z" stroke="#FFFEFE" stroke-width="2" stroke-linecap="round" stroke-linejoin="round"/>
</svg>
