<svg width="45" height="45" viewBox="0 0 45 45" fill="none" xmlns="http://www.w3.org/2000/svg">
<path fill-rule="evenodd" clip-rule="evenodd" d="M9.375 2.34375C8.00748 2.34375 6.69597 2.887 5.72898 3.85398C4.762 4.82097 4.21875 6.13248 4.21875 7.5C4.21875 8.86752 4.762 10.179 5.72898 11.146C6.69597 12.113 8.00748 12.6562 9.375 12.6562C10.7425 12.6562 12.054 12.113 13.021 11.146C13.988 10.179 14.5312 8.86752 14.5312 7.5C14.5312 6.13248 13.988 4.82097 13.021 3.85398C12.054 2.887 10.7425 2.34375 9.375 2.34375ZM7.03125 7.5C7.03125 6.8784 7.27818 6.28226 7.71772 5.84272C8.15726 5.40318 8.7534 5.15625 9.375 5.15625C9.9966 5.15625 10.5927 5.40318 11.0323 5.84272C11.4718 6.28226 11.7188 6.8784 11.7188 7.5C11.7188 8.1216 11.4718 8.71774 11.0323 9.15728C10.5927 9.59682 9.9966 9.84375 9.375 9.84375C8.7534 9.84375 8.15726 9.59682 7.71772 9.15728C7.27818 8.71774 7.03125 8.1216 7.03125 7.5ZM4.21875 15C4.21875 14.627 4.36691 14.2694 4.63063 14.0056C4.89435 13.7419 5.25204 13.5938 5.625 13.5938H13.125C13.498 13.5938 13.8556 13.7419 14.1194 14.0056C14.3831 14.2694 14.5312 14.627 14.5312 15V39.375C14.5312 39.748 14.3831 40.1056 14.1194 40.3694C13.8556 40.6331 13.498 40.7812 13.125 40.7812H5.625C5.25204 40.7812 4.89435 40.6331 4.63063 40.3694C4.36691 40.1056 4.21875 39.748 4.21875 39.375V15ZM7.03125 16.4062V37.9688H11.7188V16.4062H7.03125ZM17.3438 15C17.3438 14.627 17.4919 14.2694 17.7556 14.0056C18.0194 13.7419 18.377 13.5938 18.75 13.5938H26.25C26.623 13.5938 26.9806 13.7419 27.2444 14.0056C27.5081 14.2694 27.6562 14.627 27.6562 15V15.8138L28.4719 15.4631C29.8782 14.8624 31.3701 14.4859 32.8931 14.3475C38.0962 13.875 42.6562 17.9625 42.6562 23.2125V39.375C42.6562 39.748 42.5081 40.1056 42.2444 40.3694C41.9806 40.6331 41.623 40.7812 41.25 40.7812H33.75C33.377 40.7812 33.0194 40.6331 32.7556 40.3694C32.4919 40.1056 32.3438 39.748 32.3438 39.375V26.25C32.3438 25.6284 32.0968 25.0323 31.6573 24.5927C31.2177 24.1532 30.6216 23.9062 30 23.9062C29.3784 23.9062 28.7823 24.1532 28.3427 24.5927C27.9032 25.0323 27.6562 25.6284 27.6562 26.25V39.375C27.6562 39.748 27.5081 40.1056 27.2444 40.3694C26.9806 40.6331 26.623 40.7812 26.25 40.7812H18.75C18.377 40.7812 18.0194 40.6331 17.7556 40.3694C17.4919 40.1056 17.3438 39.748 17.3438 39.375V15ZM20.1562 16.4062V37.9688H24.8438V26.25C24.8438 24.8825 25.387 23.571 26.354 22.604C27.321 21.637 28.6325 21.0938 30 21.0938C31.3675 21.0938 32.679 21.637 33.646 22.604C34.613 23.571 35.1562 24.8825 35.1562 26.25V37.9688H39.8438V23.2125C39.8438 19.6425 36.7294 16.8225 33.15 17.1488C31.9203 17.2603 30.7156 17.564 29.58 18.0488L26.805 19.2394C26.591 19.3313 26.3574 19.3686 26.1254 19.348C25.8934 19.3274 25.6701 19.2494 25.4757 19.1211C25.2812 18.9929 25.1217 18.8183 25.0114 18.6131C24.9011 18.4079 24.8435 18.1786 24.8438 17.9456V16.4062H20.1562Z" fill="white" fill-opacity="0.95"/>
</svg>
