<svg width="45" height="45" viewBox="0 0 45 45" fill="none" xmlns="http://www.w3.org/2000/svg">
<path d="M26.25 22.5L19.6875 26.25V18.75L26.25 22.5Z" fill="white" fill-opacity="0.95" stroke="white" stroke-opacity="0.95" stroke-width="1.5" stroke-linecap="round" stroke-linejoin="round"/>
<path d="M3.75 23.8275V21.1725C3.75 15.7444 3.75 13.0294 5.44687 11.2838C7.14562 9.53625 9.81938 9.46125 15.165 9.30938C17.6963 9.23813 20.2837 9.1875 22.5 9.1875C24.7163 9.1875 27.3019 9.23813 29.835 9.30938C35.1806 9.46125 37.8544 9.53625 39.5512 11.2838C41.2481 13.0313 41.25 15.7462 41.25 21.1725V23.8256C41.25 29.2556 41.25 31.9688 39.5531 33.7163C37.8544 35.4619 35.1825 35.5388 29.835 35.6888C27.3037 35.7619 24.7163 35.8125 22.5 35.8125C20.2837 35.8125 17.6981 35.7619 15.165 35.6888C9.81938 35.5388 7.14562 35.4638 5.44687 33.7163C3.74812 31.9688 3.75 29.2538 3.75 23.8275Z" stroke="white" stroke-opacity="0.95" stroke-width="1.5"/>
</svg>
